<svg xmlns="http://www.w3.org/2000/svg" width="32" height="32" viewBox="0 0 32 32"><g transform="translate(-884 55)"><path d="M885.485-32.238A1.484,1.484,0,0,1,884-33.722v-2.2a5.89,5.89,0,0,1,5.883-5.883h7.731A1.484,1.484,0,0,1,899.1-40.32a1.485,1.485,0,0,1-1.485,1.485h-7.731a2.917,2.917,0,0,0-2.914,2.914v2.2A1.483,1.483,0,0,1,885.485-32.238Z" fill="#10137e"/><path d="M894.281-43.234a5.89,5.89,0,0,1-5.883-5.883A5.89,5.89,0,0,1,894.281-55a5.89,5.89,0,0,1,5.883,5.883A5.89,5.89,0,0,1,894.281-43.234Zm0-8.8a2.917,2.917,0,0,0-2.914,2.914,2.918,2.918,0,0,0,2.914,2.914,2.918,2.918,0,0,0,2.914-2.914A2.917,2.917,0,0,0,894.281-52.031Z" fill="#10137e"/><path d="M912.536-23H900.66a3.468,3.468,0,0,1-3.464-3.464v-7.918a3.469,3.469,0,0,1,3.464-3.464h11.876A3.469,3.469,0,0,1,916-34.382v7.918A3.468,3.468,0,0,1,912.536-23ZM900.66-34.876a.5.5,0,0,0-.495.494v7.918a.5.5,0,0,0,.495.5h11.876a.5.5,0,0,0,.495-.5v-7.918a.5.5,0,0,0-.495-.494Z" fill="#10137e"/><path d="M909.765-23a1.485,1.485,0,0,1-1.485-1.485V-38.56c.007-.179-.077-.271-.186-.278l-3.08,0a.241.241,0,0,0-.1.2v14.145A1.484,1.484,0,0,1,903.431-23a1.485,1.485,0,0,1-1.485-1.485V-38.56a3.162,3.162,0,0,1,2.982-3.242l3.253,0a3.194,3.194,0,0,1,3.067,3.315v14A1.484,1.484,0,0,1,909.765-23Z" fill="#10137e"/><rect width="32" height="32" transform="translate(884 -55)" fill="none"/></g></svg>