<svg xmlns="http://www.w3.org/2000/svg" width="24" height="24" viewBox="0 0 24 24"><g transform="translate(-959 55)"><rect width="24" height="24" transform="translate(959 -55)" fill="none"/><path d="M973.912-32a.983.983,0,0,1-.575-.186.979.979,0,0,1-.39-.958l.5-2.94-2.13-2.08a.981.981,0,0,1-.247-1,.979.979,0,0,1,.789-.666l2.954-.433,1.32-2.674a1.021,1.021,0,0,1,1.757,0l1.32,2.674,2.952.431a.979.979,0,0,1,.79.667.98.98,0,0,1-.248,1l-2.137,2.082.5,2.939a.978.978,0,0,1-.391.958.979.979,0,0,1-1.031.073L977.008-33.5l-2.64,1.389A.982.982,0,0,1,973.912-32Zm.191-6.183,1.081,1.057a.979.979,0,0,1,.281.865l-.254,1.492,1.34-.706a.979.979,0,0,1,.913,0l1.339.7-.253-1.491a.978.978,0,0,1,.281-.866l1.085-1.057-1.5-.219a.981.981,0,0,1-.737-.536l-.669-1.356-.67,1.356a.981.981,0,0,1-.736.536Z" fill="#fff"/><path d="M968.081-32a.982.982,0,0,1-.456-.112l-2.64-1.389-2.64,1.389a.982.982,0,0,1-1.031-.074.979.979,0,0,1-.39-.958l.5-2.94-2.13-2.08a.981.981,0,0,1-.247-1,.979.979,0,0,1,.789-.666l2.954-.433,1.32-2.674a1.02,1.02,0,0,1,1.756,0l1.32,2.674,2.953.431a.977.977,0,0,1,.79.667.978.978,0,0,1-.248,1l-2.137,2.082.5,2.939a.979.979,0,0,1-.39.958A.986.986,0,0,1,968.081-32Zm-3.1-3.587a.982.982,0,0,1,.456.112l1.341.706-.255-1.492a.979.979,0,0,1,.282-.866l1.085-1.057-1.5-.219a.983.983,0,0,1-.737-.536l-.669-1.356-.67,1.356a.978.978,0,0,1-.736.536l-1.5.22,1.082,1.057a.979.979,0,0,1,.281.865l-.254,1.492,1.34-.706A.982.982,0,0,1,964.985-35.584Z" fill="#fff"/><path d="M974.091-42.517a.982.982,0,0,1-.456-.112l-2.64-1.389-2.639,1.389a.982.982,0,0,1-1.031-.074.979.979,0,0,1-.39-.958l.5-2.94-2.13-2.08a.978.978,0,0,1-.248-1,.979.979,0,0,1,.79-.666l2.953-.433,1.321-2.675A.978.978,0,0,1,971-54h0a.979.979,0,0,1,.878.546l1.32,2.673,2.953.431a.98.98,0,0,1,.79.667.979.979,0,0,1-.248,1L974.556-46.6l.5,2.939a.979.979,0,0,1-.39.958A.981.981,0,0,1,974.091-42.517Zm-3.1-3.587a.976.976,0,0,1,.456.112l1.341.706-.254-1.492a.978.978,0,0,1,.282-.866l1.085-1.057-1.5-.218a.981.981,0,0,1-.737-.537L971-50.811l-.67,1.356a.977.977,0,0,1-.736.535l-1.5.221,1.082,1.056a.979.979,0,0,1,.281.865l-.255,1.491,1.341-.705A.987.987,0,0,1,970.995-46.1Z" fill="#fff"/></g></svg>