<svg xmlns="http://www.w3.org/2000/svg" width="24" height="24" viewBox="0 0 24 24"><g transform="translate(-997 55)"><path d="M998-38a1,1,0,0,1-1-1v-1.667A4.338,4.338,0,0,1,1001.333-45h5.859a1,1,0,0,1,1,1,1,1,0,0,1-1,1h-5.859A2.336,2.336,0,0,0,999-40.667V-39A1,1,0,0,1,998-38Z" fill="#fff"/><path d="M1004.666-46.334a4.338,4.338,0,0,1-4.333-4.333A4.338,4.338,0,0,1,1004.666-55,4.338,4.338,0,0,1,1009-50.667,4.338,4.338,0,0,1,1004.666-46.334Zm0-6.666a2.336,2.336,0,0,0-2.333,2.333,2.336,2.336,0,0,0,2.333,2.333A2.336,2.336,0,0,0,1007-50.667,2.336,2.336,0,0,0,1004.666-53Z" fill="#fff"/><path d="M1018-31h-8a3,3,0,0,1-3-3v-5a3,3,0,0,1,3-3h8a3,3,0,0,1,3,3v5A3,3,0,0,1,1018-31Zm-8-9a1,1,0,0,0-1,1v5a1,1,0,0,0,1,1h8a1,1,0,0,0,1-1v-5a1,1,0,0,0-1-1Z" fill="#fff"/><path d="M1016.4-31a1,1,0,0,1-1-1V-42.667a.288.288,0,0,0-.254-.334H1012.8a.27.27,0,0,0-.2.283V-32a1,1,0,0,1-1,1,1,1,0,0,1-1-1V-42.667A2.264,2.264,0,0,1,1012.745-45h2.455a2.288,2.288,0,0,1,2.2,2.382V-32A1,1,0,0,1,1016.4-31Z" fill="#fff"/><rect width="24" height="24" transform="translate(997 -55)" fill="none"/></g></svg>