<svg xmlns="http://www.w3.org/2000/svg" width="32" height="32" viewBox="0 0 32 32"><g transform="translate(-824 55)"><rect width="32" height="32" transform="translate(824 -55)" fill="none"/><path d="M840-28.28A10.734,10.734,0,0,1,829.279-39,10.734,10.734,0,0,1,840-49.722,10.734,10.734,0,0,1,850.721-39,10.734,10.734,0,0,1,840-28.28Zm0-18.473A7.76,7.76,0,0,0,832.248-39,7.76,7.76,0,0,0,840-31.249,7.76,7.76,0,0,0,847.752-39,7.76,7.76,0,0,0,840-46.753Z" fill="#10137e"/><path d="M841.979-35.536a1.48,1.48,0,0,1-1.049-.435l-1.98-1.98A1.483,1.483,0,0,1,838.516-39v-3.959A1.483,1.483,0,0,1,840-44.443a1.483,1.483,0,0,1,1.484,1.484v3.344l1.545,1.545a1.484,1.484,0,0,1,0,2.1A1.48,1.48,0,0,1,841.979-35.536Z" fill="#10137e"/><path d="M837.118-23a4.1,4.1,0,0,1-4.1-3.753l-.461-5.053a1.484,1.484,0,0,1,1.343-1.613,1.483,1.483,0,0,1,1.613,1.344l.462,5.054a1.148,1.148,0,0,0,1.149,1.052h5.73a1.149,1.149,0,0,0,1.156-1.051l.462-5.056a1.475,1.475,0,0,1,1.614-1.343,1.485,1.485,0,0,1,1.343,1.614l-.462,5.054A4.073,4.073,0,0,1,842.844-23h-5.726Zm8.859-21.575a1.485,1.485,0,0,1-1.477-1.349l-.462-5.054a1.15,1.15,0,0,0-1.151-1.053h-5.75a1.151,1.151,0,0,0-1.148,1.052l-.462,5.054a1.486,1.486,0,0,1-1.613,1.343,1.483,1.483,0,0,1-1.343-1.613l.462-5.054a4.1,4.1,0,0,1,4.1-3.751h5.758a4.1,4.1,0,0,1,4.1,3.753l.462,5.052a1.484,1.484,0,0,1-1.343,1.614C846.068-44.577,846.022-44.575,845.977-44.575Z" fill="#10137e"/></g></svg>