<svg xmlns="http://www.w3.org/2000/svg" width="24" height="24" viewBox="0 0 24 24"><g transform="translate(-924 55)"><rect width="24" height="24" transform="translate(924 -55)" fill="none"/><path d="M928-34.5a1,1,0,0,1-1-1,3.5,3.5,0,0,1,3.5-3.5H944a1,1,0,0,1,1,1,1,1,0,0,1-1,1H930.5a1.5,1.5,0,0,0-1.5,1.5A1,1,0,0,1,928-34.5Z" fill="#fff"/><path d="M944-32H930.5a3.5,3.5,0,0,1-3.5-3.5v-15a3.5,3.5,0,0,1,3.5-3.5H944a1,1,0,0,1,1,1v20A1,1,0,0,1,944-32ZM930.5-52a1.5,1.5,0,0,0-1.5,1.5v15a1.5,1.5,0,0,0,1.5,1.5H943V-52Z" fill="#fff"/></g></svg>